<mxfile host="app.diagrams.net" agent="Mozilla/5.0 (Windows NT 10.0; Win64; x64) AppleWebKit/537.36 (KHTML, like Gecko) Chrome/137.0.0.0 Safari/537.36 Edg/137.0.0.0" version="27.1.3">
  <diagram id="3228e29e-7158-1315-38df-8450db1d8a1d" name="Page-1">
    <mxGraphModel dx="1371" dy="754" grid="1" gridSize="10" guides="1" tooltips="1" connect="1" arrows="1" fold="1" page="1" pageScale="1" pageWidth="1169" pageHeight="827" background="none" math="0" shadow="0">
      <root>
        <mxCell id="0" />
        <mxCell id="1" parent="0" />
        <mxCell id="R4TMoheEHXKSQJW_qprq-21706" style="edgeStyle=orthogonalEdgeStyle;curved=1;rounded=0;orthogonalLoop=1;jettySize=auto;html=1;exitX=1;exitY=0.5;exitDx=0;exitDy=0;entryX=0;entryY=0.5;entryDx=0;entryDy=0;" edge="1" parent="1" source="R4TMoheEHXKSQJW_qprq-21729" target="R4TMoheEHXKSQJW_qprq-21715">
          <mxGeometry relative="1" as="geometry">
            <mxPoint x="150" y="400" as="sourcePoint" />
            <mxPoint x="270" y="400" as="targetPoint" />
          </mxGeometry>
        </mxCell>
        <mxCell id="R4TMoheEHXKSQJW_qprq-21695" value="&lt;h1 style=&quot;margin-top: 0px;&quot;&gt;Begining&lt;/h1&gt;&lt;p&gt;Three distinct dimensions have been brought into existence: the Overworld, the Nether, and the End. Each realm was shaped by deities—some minor, others of immense power—whose influence carved the very fabric of their respective domains.&lt;/p&gt;" style="text;html=1;whiteSpace=wrap;overflow=hidden;rounded=0;" vertex="1" parent="1">
          <mxGeometry x="200" y="230" width="180" height="170" as="geometry" />
        </mxCell>
        <mxCell id="R4TMoheEHXKSQJW_qprq-21707" value="&lt;h1&gt;&lt;b&gt;Nether&lt;/b&gt;&lt;/h1&gt;&lt;div&gt;At the dawn of times nether was warm, lush dimension where mobs such such as modern sniffers were living&amp;nbsp;&lt;/div&gt;" style="rounded=0;whiteSpace=wrap;html=1;fillColor=#d5e8d4;gradientColor=#97d077;strokeColor=#82b366;align=left;" vertex="1" parent="1">
          <mxGeometry x="415" y="460" width="200" height="120" as="geometry" />
        </mxCell>
        <mxCell id="R4TMoheEHXKSQJW_qprq-21727" value="" style="edgeStyle=orthogonalEdgeStyle;curved=1;rounded=0;orthogonalLoop=1;jettySize=auto;html=1;" edge="1" parent="1" source="R4TMoheEHXKSQJW_qprq-21715">
          <mxGeometry relative="1" as="geometry">
            <mxPoint x="880" y="400" as="targetPoint" />
          </mxGeometry>
        </mxCell>
        <mxCell id="R4TMoheEHXKSQJW_qprq-21715" value="&lt;h1&gt;&lt;b&gt;Overworld&lt;/b&gt;&lt;/h1&gt;&lt;div&gt;Overworld was forming under influence of 4 deities (Hosts) such as Action, Knowledge, WIP and Foresight.&amp;nbsp;&lt;/div&gt;" style="rounded=0;whiteSpace=wrap;html=1;fillColor=#d5e8d4;gradientColor=#97d077;strokeColor=#82b366;align=left;" vertex="1" parent="1">
          <mxGeometry x="415" y="340" width="200" height="120" as="geometry" />
        </mxCell>
        <mxCell id="R4TMoheEHXKSQJW_qprq-21716" value="&lt;h1&gt;&lt;b&gt;End&lt;/b&gt;&lt;/h1&gt;&lt;div&gt;WIP&lt;/div&gt;" style="rounded=0;whiteSpace=wrap;html=1;fillColor=#f5f5f5;gradientColor=#b3b3b3;strokeColor=#666666;align=left;" vertex="1" parent="1">
          <mxGeometry x="415" y="220" width="200" height="120" as="geometry" />
        </mxCell>
        <mxCell id="R4TMoheEHXKSQJW_qprq-21728" value="&lt;h1 style=&quot;margin-top: 0px;&quot;&gt;Magic flooding the world&lt;/h1&gt;&lt;p&gt;As the world was forming 3 beings appeared in the world&amp;nbsp;&lt;/p&gt;" style="text;html=1;whiteSpace=wrap;overflow=hidden;rounded=0;" vertex="1" parent="1">
          <mxGeometry x="630" y="190" width="180" height="210" as="geometry" />
        </mxCell>
        <mxCell id="R4TMoheEHXKSQJW_qprq-21729" value="&lt;h1&gt;Creation&lt;/h1&gt;&lt;div&gt;A magic deities created the world&lt;/div&gt;" style="rounded=0;whiteSpace=wrap;html=1;fillColor=#f5f5f5;gradientColor=#b3b3b3;strokeColor=#666666;align=left;" vertex="1" parent="1">
          <mxGeometry y="340" width="200" height="120" as="geometry" />
        </mxCell>
      </root>
    </mxGraphModel>
  </diagram>
</mxfile>
